<?xml version="1.0" encoding="utf-8"?>
<!-- Generator: Adobe Illustrator 18.1.1, SVG Export Plug-In . SVG Version: 6.00 Build 0)  -->
<svg version="1.1" id="Layer_1" xmlns="http://www.w3.org/2000/svg" xmlns:xlink="http://www.w3.org/1999/xlink" x="0px" y="0px"
	 viewBox="0 0 462.2 233.5" style="enable-background:new 0 0 462.2 233.5;" xml:space="preserve">
<style type="text/css">
	.st0{clip-path:url(#SVGID_2_);fill:#FFFFFF;}
	.st1{clip-path:url(#SVGID_2_);fill:#D9EBF1;}
	.st2{clip-path:url(#SVGID_2_);}
	.st3{fill:#FFFFFF;}
	.st4{fill:#C6D6DC;}
	.st5{fill:#C7D7DD;}
	.st6{clip-path:url(#SVGID_4_);fill:none;stroke:#C6D6DC;stroke-width:0.642;stroke-miterlimit:10;}
	.st7{fill:none;stroke:#C6D6DC;stroke-width:1.9259;stroke-miterlimit:10;}
	.st8{fill:#C6D6DC;stroke:#C6D6DC;stroke-width:0.642;stroke-linecap:round;stroke-linejoin:round;stroke-miterlimit:10;}
	.st9{fill:none;stroke:#C6D6DC;stroke-width:0.642;stroke-linejoin:round;stroke-miterlimit:10;}
	.st10{fill:none;stroke:#C6D6DC;stroke-width:0.642;stroke-miterlimit:10;}
	.st11{fill:none;stroke:#C6D6DC;stroke-width:1.2839;stroke-miterlimit:10;}
	.st12{clip-path:url(#SVGID_6_);}
</style>
<g>
	<g>
		<defs>
			<rect id="SVGID_1_" x="0" y="1.1" width="462.2" height="231.1"/>
		</defs>
		<clipPath id="SVGID_2_">
			<use xlink:href="#SVGID_1_"  style="overflow:visible;"/>
		</clipPath>
		<rect x="-125" y="-38.7" class="st0" width="693.2" height="358.9"/>
		<polygon class="st1" points="223.4,85.3 223.4,90.3 231,90.3 231,135.6 237.9,135.6 237.9,116.4 241.8,116.4 241.8,99.5 
			245.6,89.6 247.1,89.6 247.1,81.7 251.2,81.7 251.2,76.3 252.1,76.3 252.1,81.7 256.2,81.7 256.2,89.9 257.5,89.9 262.5,100.3 
			262.5,106.1 267.2,106.1 267.2,100 275.5,100 275.5,106.1 280.5,106.1 280.5,97.5 284.7,97.5 283.7,96.8 287.2,96.8 287.2,82.2 
			309.8,82.2 309.8,99.1 319.8,99.1 319.8,91 336.7,91 337.7,105.3 344.6,105.3 344.6,93.4 350.4,92.2 355.5,92.2 355.5,89.4 
			361.5,89.4 361.5,86.3 375.9,86.3 375.9,92.2 382.2,92.2 382.2,110.7 382.3,116.4 390.7,116.4 395.7,107.6 395.7,98.8 403.7,98.8 
			403.7,95.3 413.3,95.3 414.9,95.3 414.9,104.9 427.1,104.9 427.1,93.1 434.8,93.1 434.8,84.9 438.3,84.9 438.3,75.7 440.3,75.7 
			440.3,67.6 441.3,67.6 441.3,75.7 444.2,75.8 444.2,67.6 445.2,67.6 445.2,75.8 445.2,75.8 447.1,75.8 447.1,84.9 449.4,84.9 
			449.4,93.4 451.3,93.4 451.3,114.1 462.8,114.1 472.8,109.5 472.8,102.6 482.8,102.6 482.8,109.5 493.1,109.5 493.1,125.2 
			496.6,125.2 496.6,119.5 501.2,116.6 501.6,101.4 515,101.4 515,271.5 208,271.5 208,85.3 		"/>
		<polygon class="st1" points="-15.3,115.6 -15.3,119.9 -8.6,119.9 -8.6,159.6 -2.5,159.6 -2.5,142.8 0.8,142.8 0.8,128 4.2,119.3 
			5.5,119.3 5.5,112.4 9.1,112.4 9.1,107.6 9.9,107.6 9.9,112.4 13.5,112.4 13.5,119.6 14.6,119.6 19,128.7 19,133.7 23.1,133.7 
			23.1,128.4 30.4,128.4 30.4,133.7 34.8,133.7 34.8,126.2 38.5,126.2 38.5,114.9 41.6,114.9 41.6,102.1 61.4,102.1 61.4,116.9 
			70.2,116.9 70.2,109.8 85,109.8 85,133.1 91,133.1 91,122.6 96.1,121.6 100.6,121.6 100.6,119.1 105.8,119.1 105.8,116.4 
			118.5,116.4 118.5,121.6 124,121.6 124,137.8 124,142.8 131.4,142.8 135.8,135.1 135.8,127.3 142.9,127.3 142.9,124.3 
			151.3,124.3 152.6,124.3 152.6,132.7 163.3,132.7 163.3,122.4 170.1,122.4 170.1,115.2 173.2,115.2 173.2,107.1 175,107.1 
			175,100 175.8,100 175.8,107.1 178.4,107.2 178.4,100 179.2,100 179.2,107.2 179.2,107.2 180.9,107.2 180.9,115.2 182.9,115.2 
			182.9,122.6 184.6,122.6 184.6,140.8 194.7,140.8 203.4,136.8 203.4,130.7 212.2,130.7 212.2,136.8 221.3,136.8 221.3,150.6 
			224.3,150.6 224.3,145.5 228.3,143 228.7,129.7 240.5,129.7 240.5,278.8 -28.8,278.8 -28.8,115.6 		"/>
		<g class="st2">
			<rect x="-2.2" y="130.3" class="st3" width="22.3" height="1.7"/>
			<rect x="33.4" y="57.2" class="st3" width="2.5" height="112.7"/>
			<rect x="414.9" y="100.7" class="st3" width="2.8" height="68.4"/>
		</g>
	</g>
	<rect x="407.5" y="98.1" class="st4" width="3.2" height="7.5"/>
	<rect x="407.5" y="110.7" class="st4" width="3.2" height="7.5"/>
	<rect x="407.5" y="123.4" class="st4" width="3.2" height="7.5"/>
	<rect x="407.5" y="136" class="st4" width="3.2" height="7.5"/>
	<rect x="407.5" y="148.7" class="st4" width="3.2" height="7.5"/>
	<rect x="407.5" y="161.3" class="st4" width="3.2" height="7.5"/>
	<rect x="407.5" y="174" class="st4" width="3.2" height="7.5"/>
	<rect x="407.5" y="186.6" class="st4" width="3.2" height="7.5"/>
	<rect x="407.5" y="199.3" class="st4" width="3.2" height="7.5"/>
	<rect x="407.5" y="211.9" class="st4" width="3.2" height="7.5"/>
	<rect x="407.5" y="224.6" class="st4" width="3.2" height="7.5"/>
	<rect x="399.8" y="101.8" class="st4" width="3.2" height="3.7"/>
	<rect x="399.8" y="110.7" class="st4" width="3.2" height="7.5"/>
	<rect x="399.8" y="123.4" class="st4" width="3.2" height="7.5"/>
	<rect x="399.8" y="136" class="st4" width="3.2" height="7.5"/>
	<rect x="399.8" y="148.7" class="st4" width="3.2" height="7.5"/>
	<rect x="399.8" y="161.3" class="st4" width="3.2" height="7.5"/>
	<rect x="399.8" y="174" class="st4" width="3.2" height="7.5"/>
	<rect x="399.8" y="186.6" class="st5" width="3.2" height="7.5"/>
	<rect x="399.8" y="199.3" class="st4" width="3.2" height="7.5"/>
	<rect x="399.8" y="211.9" class="st4" width="3.2" height="7.5"/>
	<rect x="399.8" y="224.6" class="st4" width="3.2" height="7.5"/>
	<g>
		<defs>
			<rect id="SVGID_3_" x="419.4" y="109" width="42.9" height="120.9"/>
		</defs>
		<clipPath id="SVGID_4_">
			<use xlink:href="#SVGID_3_"  style="overflow:visible;"/>
		</clipPath>
		<rect x="421.4" y="111.2" class="st6" width="26.9" height="2.9"/>
		<rect x="421.4" y="118.9" class="st6" width="44.8" height="2.9"/>
		<rect x="421.4" y="126.6" class="st6" width="44.8" height="2.9"/>
		<rect x="421.4" y="134.3" class="st6" width="44.8" height="2.9"/>
		<rect x="421.4" y="142.1" class="st6" width="44.8" height="2.9"/>
		<rect x="421.4" y="149.8" class="st6" width="44.8" height="2.9"/>
		<rect x="421.4" y="157.5" class="st6" width="44.8" height="2.9"/>
		<rect x="421.4" y="165.2" class="st6" width="44.8" height="2.9"/>
		<rect x="421.4" y="173" class="st6" width="44.8" height="2.9"/>
		<rect x="421.4" y="180.7" class="st6" width="44.8" height="2.9"/>
		<rect x="421.4" y="188.4" class="st6" width="44.8" height="2.9"/>
		<rect x="421.4" y="196.1" class="st6" width="44.8" height="2.9"/>
		<rect x="421.4" y="203.8" class="st6" width="44.8" height="2.9"/>
		<rect x="421.4" y="211.6" class="st6" width="44.8" height="2.9"/>
		<rect x="421.4" y="219.3" class="st6" width="44.8" height="2.9"/>
		<rect x="421.4" y="227" class="st6" width="44.8" height="2.9"/>
	</g>
	<polygon class="st4" points="0.8,130.3 19,130.3 19,128.7 14.6,119.6 13.5,119.6 13.5,112.4 9.9,112.4 9.9,107.6 9.1,107.6 
		9.1,112.4 5.5,112.4 5.5,119.3 4.2,119.3 0.8,128 	"/>
	<rect x="440.3" y="67.6" class="st4" width="1" height="8.1"/>
	<rect x="444.2" y="67.6" class="st4" width="1" height="8.1"/>
	<g>
		<line class="st7" x1="165" y1="163.3" x2="217.3" y2="163.3"/>
		<line class="st7" x1="165" y1="169.7" x2="217.3" y2="169.7"/>
		<line class="st7" x1="165" y1="176.1" x2="217.3" y2="176.1"/>
		<line class="st7" x1="165" y1="182.5" x2="217.3" y2="182.5"/>
		<line class="st7" x1="165" y1="188.8" x2="217.3" y2="188.8"/>
		<line class="st7" x1="165" y1="195.2" x2="217.3" y2="195.2"/>
		<line class="st7" x1="165" y1="201.6" x2="217.3" y2="201.6"/>
		<line class="st7" x1="165" y1="208" x2="217.3" y2="208"/>
		<line class="st7" x1="165" y1="214.3" x2="217.3" y2="214.3"/>
		<line class="st7" x1="165" y1="220.7" x2="217.3" y2="220.7"/>
		<line class="st7" x1="165" y1="227.1" x2="217.3" y2="227.1"/>
	</g>
	<rect x="35.8" y="126.3" class="st4" width="3" height="43.4"/>
	<rect x="38.4" y="114.9" class="st5" width="3" height="54.8"/>
	<g>
		<polygon class="st8" points="44.1,116.4 59.3,116.4 59.3,104.3 		"/>
		<polygon class="st9" points="59.3,104.2 44.1,104.2 44.1,116.3 		"/>
	</g>
	<line class="st10" x1="67.6" y1="120.8" x2="44.1" y2="120.8"/>
	<line class="st10" x1="67.6" y1="125.7" x2="44.1" y2="125.7"/>
	<line class="st10" x1="67.6" y1="130.6" x2="44.1" y2="130.6"/>
	<line class="st10" x1="67.6" y1="135.4" x2="44.1" y2="135.4"/>
	<line class="st10" x1="67.6" y1="140.3" x2="44.1" y2="140.3"/>
	<line class="st10" x1="67.6" y1="145.2" x2="44.1" y2="145.2"/>
	<line class="st10" x1="67.6" y1="150" x2="44.1" y2="150"/>
	<line class="st10" x1="67.6" y1="154.9" x2="44.1" y2="154.9"/>
	<line class="st10" x1="67.6" y1="159.8" x2="44.1" y2="159.8"/>
	<line class="st10" x1="67.6" y1="164.6" x2="44.1" y2="164.6"/>
	<line class="st10" x1="67.6" y1="169.5" x2="44.1" y2="169.5"/>
	<line class="st10" x1="67.6" y1="174.4" x2="44.1" y2="174.4"/>
	<line class="st10" x1="67.6" y1="179.3" x2="44.1" y2="179.3"/>
	<line class="st10" x1="67.6" y1="184.1" x2="44.1" y2="184.1"/>
	<line class="st10" x1="67.6" y1="189" x2="44.1" y2="189"/>
	<line class="st10" x1="67.6" y1="193.9" x2="44.1" y2="193.9"/>
	<line class="st10" x1="67.6" y1="198.7" x2="44.1" y2="198.7"/>
	<line class="st10" x1="67.6" y1="203.6" x2="44.1" y2="203.6"/>
	<line class="st10" x1="67.6" y1="208.5" x2="44.1" y2="208.5"/>
	<line class="st10" x1="67.6" y1="213.3" x2="44.1" y2="213.3"/>
	<line class="st10" x1="67.6" y1="218.2" x2="44.1" y2="218.2"/>
	<line class="st10" x1="67.6" y1="223.1" x2="44.1" y2="223.1"/>
	<line class="st10" x1="67.6" y1="227.9" x2="44.1" y2="227.9"/>
	<g>
		<line class="st11" x1="111.9" y1="136.4" x2="111.9" y2="216.4"/>
		<line class="st11" x1="105.6" y1="136.4" x2="105.6" y2="213.3"/>
		<line class="st11" x1="124.6" y1="157.1" x2="124.6" y2="227.3"/>
		<line class="st11" x1="118.2" y1="136.4" x2="118.2" y2="222.4"/>
		<line class="st11" x1="137.2" y1="156.5" x2="137.2" y2="216.4"/>
		<line class="st11" x1="130.9" y1="156" x2="130.9" y2="222.4"/>
		<line class="st11" x1="149.8" y1="156.5" x2="149.8" y2="206.4"/>
		<line class="st11" x1="143.5" y1="156.5" x2="143.5" y2="215.9"/>
		<line class="st11" x1="99.3" y1="136.4" x2="99.3" y2="206.4"/>
	</g>
	<rect x="3.3" y="135" class="st4" width="3.2" height="3.2"/>
	<rect x="8.5" y="135" class="st4" width="3.2" height="3.2"/>
	<rect x="13.6" y="135" class="st4" width="3.2" height="3.2"/>
	<rect x="3.3" y="140" class="st4" width="3.2" height="3.2"/>
	<rect x="8.5" y="140" class="st4" width="3.2" height="3.2"/>
	<rect x="13.6" y="140" class="st4" width="3.2" height="3.2"/>
	<rect x="3.3" y="145" class="st4" width="3.2" height="3.2"/>
	<rect x="8.5" y="145" class="st4" width="3.2" height="3.2"/>
	<rect x="13.6" y="145" class="st4" width="3.2" height="3.2"/>
	<rect x="3.3" y="150" class="st4" width="3.2" height="3.2"/>
	<rect x="8.5" y="150" class="st4" width="3.2" height="3.2"/>
	<rect x="13.6" y="150" class="st4" width="3.2" height="3.2"/>
	<rect x="3.3" y="155" class="st4" width="3.2" height="3.2"/>
	<rect x="8.5" y="155" class="st4" width="3.2" height="3.2"/>
	<rect x="13.6" y="155" class="st4" width="3.2" height="3.2"/>
	<rect x="3.3" y="160" class="st4" width="3.2" height="3.2"/>
	<rect x="8.5" y="160" class="st4" width="3.2" height="3.2"/>
	<rect x="13.6" y="160" class="st4" width="3.2" height="3.2"/>
	<rect x="3.3" y="165" class="st4" width="3.2" height="3.2"/>
	<rect x="8.5" y="165" class="st4" width="3.2" height="3.2"/>
	<rect x="13.6" y="165" class="st4" width="3.2" height="3.2"/>
	<rect x="3.3" y="170" class="st4" width="3.2" height="3.2"/>
	<rect x="8.5" y="170" class="st4" width="3.2" height="3.2"/>
	<rect x="13.6" y="170" class="st4" width="3.2" height="3.2"/>
	<rect x="3.3" y="175" class="st4" width="3.2" height="3.2"/>
	<rect x="8.5" y="175" class="st4" width="3.2" height="3.2"/>
	<rect x="13.6" y="175" class="st4" width="3.2" height="3.2"/>
	<rect x="3.3" y="180" class="st4" width="3.2" height="3.2"/>
	<rect x="8.5" y="180" class="st4" width="3.2" height="3.2"/>
	<rect x="13.6" y="180" class="st4" width="3.2" height="3.2"/>
	<rect x="3.3" y="185.1" class="st4" width="3.2" height="3.2"/>
	<rect x="8.5" y="185.1" class="st4" width="3.2" height="3.2"/>
	<rect x="13.6" y="185.1" class="st4" width="3.2" height="3.2"/>
	<rect x="3.3" y="190.1" class="st4" width="3.2" height="3.2"/>
	<rect x="8.5" y="190.1" class="st4" width="3.2" height="3.2"/>
	<rect x="13.6" y="190.1" class="st4" width="3.2" height="3.2"/>
	<rect x="3.3" y="195.1" class="st4" width="3.2" height="3.2"/>
	<rect x="8.5" y="195.1" class="st4" width="3.2" height="3.2"/>
	<rect x="13.6" y="195.1" class="st4" width="3.2" height="3.2"/>
	<rect x="3.3" y="200.1" class="st4" width="3.2" height="3.2"/>
	<rect x="8.5" y="200.1" class="st4" width="3.2" height="3.2"/>
	<rect x="13.6" y="200.1" class="st4" width="3.2" height="3.2"/>
	<rect x="3.3" y="205.1" class="st4" width="3.2" height="3.2"/>
	<rect x="8.5" y="205.1" class="st4" width="3.2" height="3.2"/>
	<rect x="13.6" y="205.1" class="st4" width="3.2" height="3.2"/>
	<rect x="3.3" y="210.1" class="st4" width="3.2" height="3.2"/>
	<rect x="8.5" y="210.1" class="st4" width="3.2" height="3.2"/>
	<rect x="13.6" y="210.1" class="st4" width="3.2" height="3.2"/>
	<rect x="3.3" y="215.1" class="st4" width="3.2" height="3.2"/>
	<rect x="8.5" y="215.1" class="st4" width="3.2" height="3.2"/>
	<rect x="13.6" y="215.1" class="st4" width="3.2" height="3.2"/>
	<rect x="3.3" y="220.1" class="st4" width="3.2" height="3.2"/>
	<rect x="8.5" y="220.1" class="st4" width="3.2" height="3.2"/>
	<rect x="13.6" y="220.1" class="st4" width="3.2" height="3.2"/>
	<rect x="3.3" y="225.1" class="st4" width="3.2" height="3.2"/>
	<rect x="8.5" y="225.1" class="st4" width="3.2" height="3.2"/>
	<rect x="13.6" y="225.1" class="st4" width="3.2" height="3.2"/>
	<rect x="3.3" y="230" class="st4" width="3.2" height="1.7"/>
	<rect x="8.5" y="230" class="st4" width="3.2" height="1.7"/>
	<rect x="13.6" y="230" class="st4" width="3.2" height="1.7"/>
	<line class="st11" x1="26.6" y1="130.6" x2="26.6" y2="232.3"/>
	<line class="st11" x1="30.3" y1="136.4" x2="30.3" y2="232.3"/>
	<line class="st11" x1="22.8" y1="136.4" x2="22.8" y2="232.3"/>
	<g>
		<defs>
			<rect id="SVGID_5_" x="287" y="71.5" width="23.1" height="160.7"/>
		</defs>
		<clipPath id="SVGID_6_">
			<use xlink:href="#SVGID_5_"  style="overflow:visible;"/>
		</clipPath>
		<g class="st12">
			<rect x="290.4" y="86.3" class="st10" width="2.9" height="48.9"/>
			<polygon class="st10" points="290.4,142.4 294.7,143.7 294.7,192.5 290.4,191.3 			"/>
			<rect x="290.4" y="198.5" class="st10" width="2.9" height="48.9"/>
		</g>
		<g class="st12">
			<rect x="297.4" y="86.3" class="st10" width="2.9" height="48.9"/>
			<rect x="297.4" y="142.4" class="st10" width="2.9" height="48.9"/>
			<rect x="297.4" y="198.5" class="st10" width="2.9" height="48.9"/>
		</g>
		<g class="st12">
			<rect x="304.4" y="86.3" class="st10" width="2.9" height="48.9"/>
			<rect x="304.4" y="142.4" class="st10" width="2.9" height="48.9"/>
			<rect x="304.4" y="198.5" class="st10" width="2.9" height="48.9"/>
		</g>
	</g>
	<g>
		<g>
			<rect x="276.2" y="219.5" class="st4" width="4.5" height="9.1"/>
			<rect x="276.2" y="206.5" class="st4" width="4.5" height="9.1"/>
			<rect x="276.2" y="193.5" class="st4" width="4.5" height="9.1"/>
			<rect x="276.2" y="180.5" class="st4" width="4.5" height="9.1"/>
			<rect x="276.2" y="167.5" class="st4" width="4.5" height="9.1"/>
		</g>
		<g>
			<rect x="268.1" y="226.6" class="st4" width="4.5" height="5.6"/>
			<rect x="268.1" y="213.6" class="st4" width="4.5" height="9.1"/>
			<rect x="268.1" y="200.6" class="st4" width="4.5" height="9.1"/>
			<rect x="268.1" y="187.6" class="st4" width="4.5" height="9.1"/>
			<rect x="268.1" y="174.5" class="st4" width="4.5" height="9.1"/>
		</g>
		<g>
			<rect x="260.1" y="219.5" class="st4" width="4.5" height="9.1"/>
			<rect x="260.1" y="206.5" class="st4" width="4.5" height="9.1"/>
			<rect x="260.1" y="193.5" class="st4" width="4.5" height="9.1"/>
			<rect x="260.1" y="180.5" class="st4" width="4.5" height="9.1"/>
			<rect x="260.1" y="167.5" class="st4" width="4.5" height="9.1"/>
		</g>
		<g>
			<rect x="252" y="226.6" class="st4" width="4.5" height="5.6"/>
			<rect x="252" y="213.6" class="st4" width="4.5" height="9.1"/>
			<rect x="252" y="200.6" class="st4" width="4.5" height="9.1"/>
			<rect x="252" y="187.6" class="st4" width="4.5" height="9.1"/>
			<rect x="252" y="174.5" class="st4" width="4.5" height="9.1"/>
		</g>
		<g>
			<rect x="243.9" y="219.5" class="st4" width="4.5" height="9.1"/>
			<rect x="243.9" y="206.5" class="st4" width="4.5" height="9.1"/>
			<rect x="243.9" y="193.5" class="st4" width="4.5" height="9.1"/>
			<rect x="243.9" y="180.5" class="st4" width="4.5" height="9.1"/>
			<rect x="243.9" y="167.5" class="st4" width="4.5" height="9.1"/>
		</g>
		<g>
			<rect x="235.9" y="226.6" class="st4" width="4.5" height="5.6"/>
			<rect x="235.9" y="213.6" class="st4" width="4.5" height="9.1"/>
			<rect x="235.9" y="200.6" class="st4" width="4.5" height="9.1"/>
			<rect x="235.9" y="187.6" class="st4" width="4.5" height="9.1"/>
			<rect x="235.9" y="174.5" class="st4" width="4.5" height="9.1"/>
		</g>
	</g>
	<g>
		<rect x="313.8" y="226.6" class="st4" width="70.4" height="2.4"/>
		<rect x="313.8" y="210.1" class="st4" width="70.4" height="2.4"/>
		<rect x="316.8" y="216" class="st10" width="6.5" height="8.1"/>
		<rect x="327.9" y="216" class="st10" width="6.5" height="8.1"/>
		<rect x="339.1" y="216" class="st10" width="6.5" height="8.1"/>
		<rect x="350.2" y="216" class="st10" width="6.5" height="8.1"/>
		<rect x="361.3" y="216" class="st10" width="6.5" height="8.1"/>
		<rect x="372.4" y="216" class="st10" width="6.5" height="8.1"/>
	</g>
	<polygon class="st5" points="70.2,232.2 70.2,109.8 85,109.8 85,133.1 91,133.1 91,232.4 	"/>
</g>
</svg>
