<?xml version="1.0" encoding="utf-8"?>
<!-- Generator: Adobe Illustrator 18.1.1, SVG Export Plug-In . SVG Version: 6.00 Build 0)  -->
<svg version="1.1" id="Isolation_Mode" xmlns="http://www.w3.org/2000/svg" xmlns:xlink="http://www.w3.org/1999/xlink" x="0px"
	 y="0px" viewBox="0 0 90 136.4" style="enable-background:new 0 0 90 136.4;" xml:space="preserve">
<style type="text/css">
	.st0{fill:#D2AA5E;}
	.st1{fill:#EABC62;}
	.st2{fill:#4285F4;}
</style>
<g>
	<path class="st0" d="M22.6,28.3c-1,0.3-5.6,1.9-5.6,2.6c0,1,1.1,1.9,1.4,3.5c0,0.1,2.4,0.6,3.2,1c1.9,0.7,2,2.7,1.4,4.1
		c-0.6,1.4-1.2,1.4-2.7,1.1c-5.1-1-6,0-6.9-2.5c-1.2-3.3-2.3-5.1-2.7-7.8c-0.4-2.4-0.4-4,8.9-7.9C25.5,20,27.6,26.9,22.6,28.3"/>
	<path class="st1" d="M30.1,42c0,0-10.4,6.3-11.2,1.5c-0.9-5.3-6.1-18.2-7.1-20.5c-2.8-5.9-4.2-9.5-9.7-14.9C-2.7,3.3,1.7-1.9,5,0.7
		c7.1,5.7,10.7,11,14.3,18.2C22.2,24.8,30.1,42,30.1,42"/>
	<path class="st1" d="M64.8,79.7c-5.9-14.8-3.5-7-8.9-20.9c-3.4-8.9-4.8-19.1-11.1-35.6c-0.8-2.1-2.6-4-4.7-3.3
		c-0.3,0.1-0.7,0.3-0.9,0.5c-1-1.6-3.1-2.3-5-1.6c-0.8,0.3-1.4,0.8-1.9,1.5c-1-1.2-2.6-1.7-4.4-1.1c-4.3,1.7-11.8,4.5-11.8,4.5
		c0.7,2.4,2,4.3,3.4,6.1c-0.6,0.4-1,0.6-1,0.6c1.2,2.6,2.2,5,3.2,7.1c0,0.3-0.1,0.6-0.3,0.7c-2,0.8-2.1,6.5-4.4,4.3
		c-4.6-4.4-4.6-6.3-4.4-11.2c0.3-5.8-6.6-7.9-6.8-2.7c-0.3,9.8-2.8,12.1,9.5,25.1C25.7,64.6,31.9,59.2,37,72.5l3,7.8L64.8,79.7z"/>
	<path class="st0" d="M20.8,21.9c0,0,0.7,1.5,1.8,4.1c2.1,4.7,0.7-5,4.7-6.6L20.8,21.9z"/>
</g>
<polygon class="st2" points="37,72.5 60.9,60.3 90,126.9 52,136.4 "/>
</svg>
