<?xml version="1.0" encoding="utf-8"?>
<!-- Generator: Adobe Illustrator 18.1.1, SVG Export Plug-In . SVG Version: 6.00 Build 0)  -->
<svg version="1.1" id="Isolation_Mode" xmlns="http://www.w3.org/2000/svg" xmlns:xlink="http://www.w3.org/1999/xlink" x="0px"
	 y="0px" viewBox="0 0 134.9 132.1" style="enable-background:new 0 0 134.9 132.1;" xml:space="preserve">
<style type="text/css">
	.st0{fill:#EABC62;}
	.st1{fill:#E4E4E4;}
	.st2{clip-path:url(#SVGID_2_);fill:#DEDEDD;}
	.st3{clip-path:url(#SVGID_2_);fill:none;stroke:#FFFFFF;stroke-width:0.4245;stroke-miterlimit:10;}
	.st4{fill:none;stroke:#FFFFFF;stroke-width:0.2325;stroke-miterlimit:10;}
	.st5{fill:#4285F4;}
	.st6{fill:#414141;}
	.st7{fill:#FFFFFF;}
	.st8{fill:#DEDEDD;}
	.st9{fill:#CCCBCB;}
	.st10{fill:#ECECEC;}
	.st11{fill:#547DBE;}
	.st12{fill:#F7BB16;}
	.st13{fill:#0C9D58;}
	.st14{fill:#BCBCBC;}
</style>
<g>
	<path class="st0" d="M37.6,105.2c2.4-2.4,3.6-3.6,4.2-4.3c0.4-0.4,0.6-1,0.6-1.5l-0.8-36c-1.6-1.3-2.3-1.9-0.5-4.1
		c4.6-5.4,6.1-7.7,6.2-11.3c0.2-5.3-5.3-7.1-6.6-2.4c-1.3,4.4-4.9,8-11.4,15.7C18.5,74,29.6,80.7,20.7,89.5l-1.1,2.2L37.6,105.2z"/>
	<polygon class="st0" points="38.1,104.6 20.5,89.8 4.6,126.1 33.5,126.1 	"/>
	<path class="st0" d="M26.8,91.3c-5.3,3.4-8.4,3.2-7.1,0.5c4.8-10.6-1.2-17.8,9.5-30.4c6.5-7.7,10.2-11.3,11.4-15.7
		c1.3-4.7,6.8-2.9,6.6,2.4c-0.1,3.5-1.6,5.8-6.2,11.3c-1.3,1.5-1.3,2.2-0.7,3c0.3,0.3-0.3,11.3-0.4,11.9
		C39.2,84.5,28.7,90,26.8,91.3"/>
</g>
<rect x="46.7" y="6.1" class="st1" width="83.2" height="98.9"/>
<g>
	<defs>
		<path id="SVGID_1_" d="M50.7,6.2c-2.2,0-4.1-0.2-4.1,1.7v6.7h51.8h23.8h7.6V8c0-1.9-1.7-1.7-3.9-1.7h-3.6L98.5,6.1L50.7,6.2z"/>
	</defs>
	<clipPath id="SVGID_2_">
		<use xlink:href="#SVGID_1_"  style="overflow:visible;"/>
	</clipPath>
	<path class="st2" d="M129.8,4.8c0-0.2-0.1-0.3-0.3-0.3h-7.3H98.4H46.9c-0.2,0-0.3,0.1-0.3,0.3v9.5c0,0.2,0.1,0.3,0.3,0.3h51.5h23.8
		h7.3c0.2,0,0.3-0.1,0.3-0.3V4.8z"/>
	<path class="st3" d="M46.6,11.5h51.8h23.8h7.6 M90.2,11.4c0,0-0.9,0-1.3-0.8l-1.6-3.1c-0.1-0.2-0.2-0.1-1-0.1H53.7
		c-0.8,0-0.9,0-1,0.1l-1.6,3.2c-0.4,0.8-1.3,0.7-1.3,0.7"/>
</g>
<path class="st4" d="M62.4,58.2l-4.1,4.1 M62.4,58.2h-6.6 M62.6,51.8v12.6"/>
<polygon class="st5" points="15.6,92.8 40.1,111 34.5,132.1 0,132.1 "/>
<path class="st6" d="M134.9,109.3c0,1.1-0.9,2.1-2.1,2.1H43.7c-1.1,0-2.1-0.9-2.1-2.1V2.1c0-1.1,0.9-2.1,2.1-2.1h89.1
	c1.1,0,2.1,0.9,2.1,2.1V109.3z"/>
<path class="st7" d="M49.5,105.1c-1.4,0-2.7-2.2-2.7-4.4V13.4c0-2.4,1.4-4.1,2.7-4.1h78.3c1.2,0,2.1,1.7,2.1,4.1v87.2
	c0,2.2-0.7,4.5-2.1,4.5H49.5z"/>
<rect x="46.7" y="14.5" class="st1" width="83.1" height="4.9"/>
<rect x="50.7" y="21.7" class="st8" width="76" height="83.4"/>
<rect x="55.5" y="49.1" class="st7" width="14.2" height="19.6"/>
<rect x="55.5" y="70.7" class="st7" width="14.2" height="19.6"/>
<rect x="55.5" y="27.5" class="st7" width="14.2" height="19.6"/>
<path class="st9" d="M67.8,36.7c0,2.9-2.3,5.2-5.2,5.2c-2.9,0-5.2-2.3-5.2-5.2c0-2.9,2.3-5.2,5.2-5.2C65.5,31.5,67.8,33.8,67.8,36.7
	"/>
<path class="st10" d="M62.7,31.3c0,0-0.1,0-0.1,0c-3,0-5.5,2.2-5.9,5.1l6,0V31.3z"/>
<path class="st11" d="M58.1,41.1c1.1,1.3,2.7,2.1,4.5,2.1c0,0,0.1,0,0.1,0v-6.7L58.1,41.1z"/>
<path class="st12" d="M62.7,36.4l-6,0c0,0.3-0.1,0.5-0.1,0.8c0,1.5,0.5,2.8,1.4,3.9l4.7-4.6V36.4z"/>
<path class="st13" d="M68.6,37.2c0-3.2-2.6-5.9-5.8-6v11.9C66,43.1,68.6,40.5,68.6,37.2"/>
<rect x="57.6" y="52.5" class="st13" width="2.3" height="13.9"/>
<rect x="59.9" y="62.3" class="st11" width="2.3" height="4"/>
<rect x="65.2" y="62.3" class="st12" width="2.3" height="4"/>
<rect x="62.3" y="58.3" class="st10" width="3" height="8.1"/>
<g>
	<rect x="57.4" y="75.2" class="st14" width="10.1" height="1.2"/>
	<rect x="62.5" y="77.5" class="st14" width="5.1" height="1.2"/>
	<rect x="62.5" y="79.8" class="st14" width="5.1" height="1.2"/>
	<rect x="57.4" y="82.1" class="st14" width="10.1" height="1.2"/>
	<rect x="57.4" y="84.3" class="st14" width="10.1" height="1.2"/>
	<rect x="57.4" y="77.5" class="st11" width="3.6" height="3.5"/>
</g>
<rect x="46.5" y="5.7" class="st12" width="83.4" height="9.3"/>
</svg>
