<?xml version="1.0" encoding="utf-8"?>
<!-- Generator: Adobe Illustrator 18.1.1, SVG Export Plug-In . SVG Version: 6.00 Build 0)  -->
<svg version="1.1" id="Layer_1" xmlns="http://www.w3.org/2000/svg" xmlns:xlink="http://www.w3.org/1999/xlink" x="0px" y="0px"
	 viewBox="0 0 1191.7 484" style="enable-background:new 0 0 1191.7 484;" xml:space="preserve">
<style type="text/css">
	.st0{fill:#F68C1E;}
	.st1{fill:#F7BB16;}
	.st2{fill:none;stroke:#F68C1E;stroke-width:6.5684;stroke-miterlimit:10;}
	.st3{fill:#414141;}
	.st4{fill:#737374;}
	.st5{fill:#DEDEDD;}
	.st6{fill:none;stroke:#F4F5F5;stroke-width:16.4252;stroke-linejoin:round;stroke-miterlimit:10;}
	.st7{fill:none;stroke:#CED5DA;stroke-width:16.4252;stroke-linecap:round;stroke-linejoin:round;stroke-miterlimit:10;}
	.st8{fill:#F4F5F5;}
	.st9{fill:none;stroke:#DEDEDD;stroke-width:2.5917;stroke-linejoin:round;stroke-miterlimit:10;}
	.st10{fill:#FFDE80;}
	.st11{clip-path:url(#SVGID_2_);}
	.st12{fill:#BFBFBF;}
	.st13{clip-path:url(#SVGID_4_);fill:#BFBFBF;}
</style>
<g>
	<path class="st0" d="M519.7,75.9h-24V34.1c0-6.6,5.4-12,12-12c6.6,0,12,5.4,12,12V75.9z"/>
	<path class="st1" d="M1139.1,424.8c56.9,0,52.6-35.6,52.6-71.7c0-96.5-157.6-138.1-269.7-157c0,0-207.1-123.6-393.7-123.6
		c-317.1,0-349.8,58.8-493.3,83c0,30.6,4.5,82.1-9.5,120C25,276.5-0.3,306.3,0,316.3c0.5,18.5,1.2,36.2,1.2,56.4
		c0,37.7,76.8,52,111.5,52H1139.1z"/>
	<path class="st2" d="M527.4,171.8l0.3,229.4 M815.4,171.8c39.4,51.7,39.8,90.3,24.4,152.8C824.5,387,819,402.3,819,402.3H349.2
		c0,0,3.3-116.1-87.6-143.5c-2.4-0.7-2.2-98.5-2.2-98.5"/>
	<path class="st3" d="M211.2,275.4c62.3,0,112.8,50.5,112.8,112.8c0,12.8-2.2,25.1-6.1,36.5H112.6c-2.9,0-5.6-0.1-8.3-0.3
		c-3.9-11.4-6-23.5-6-36.2C98.4,325.9,148.9,275.4,211.2,275.4"/>
	<path class="st4" d="M307,388.2c0,52.9-42.9,95.7-95.7,95.7c-52.9,0-95.7-42.9-95.7-95.7c0-52.9,42.9-95.8,95.7-95.8
		C264.1,292.5,307,335.3,307,388.2"/>
	<path class="st5" d="M274.5,388.2c0,35-28.4,63.3-63.3,63.3c-35,0-63.4-28.3-63.4-63.3c0-35,28.4-63.3,63.4-63.3
		C246.2,324.9,274.5,353.2,274.5,388.2"/>
	<path class="st6" d="M256.5,388.2c0,25-20.3,45.3-45.3,45.3c-25,0-45.3-20.3-45.3-45.3c0-25,20.3-45.3,45.3-45.3
		C236.2,342.9,256.5,363.2,256.5,388.2z"/>
	<path class="st7" d="M193.7,346.5c10.7-4.5,23.2-4.9,34.8-0.1 M253.5,372c4,10.4,4.2,22.4-0.5,33.5 M228.5,430
		c-10.7,4.4-23.1,4.8-34.7,0 M169.4,405.5c-4.4-10.7-4.8-23.1,0-34.7"/>
	<path class="st5" d="M249.5,388.2c0,21.1-17.1,38.3-38.3,38.3c-21.2,0-38.3-17.1-38.3-38.3c0-21.1,17.1-38.3,38.3-38.3
		C232.4,349.9,249.5,367.1,249.5,388.2"/>
	<path class="st3" d="M960.3,275.4c62.3,0,112.8,50.5,112.8,112.8c0,12.8-2.2,25.1-6.1,36.5H853.5c-3.9-11.5-6.1-23.7-6.1-36.5
		C847.4,325.9,898,275.4,960.3,275.4"/>
	<path class="st4" d="M1056,388.2c0,52.9-42.9,95.7-95.7,95.7c-52.9,0-95.7-42.9-95.7-95.7c0-52.9,42.9-95.8,95.7-95.8
		C1013.1,292.5,1056,335.3,1056,388.2"/>
	<path class="st5" d="M1023.6,388.2c0,35-28.4,63.3-63.3,63.3c-35,0-63.3-28.3-63.3-63.3c0-35,28.4-63.3,63.3-63.3
		C995.2,324.9,1023.6,353.2,1023.6,388.2"/>
	<path class="st6" d="M1005.5,388.2c0,25-20.3,45.3-45.3,45.3c-25,0-45.3-20.3-45.3-45.3c0-25,20.3-45.3,45.3-45.3
		C985.3,342.9,1005.5,363.2,1005.5,388.2z"/>
	<path class="st8" d="M834.2,173.5c-46.7-23.4-160-86.5-306.8-86.5c-109.5,0-165.6,4.1-210,13.5v80.4
		c150.9,7.8,563.2,49.6,599.3,50.7C931.4,225,885.4,199.1,834.2,173.5"/>
	<path class="st4" d="M213.4,129.4c-4.4,1.6-6.9,6.4-5.7,10.9c5.3,20.1,3.9,39.2,72.2,39.2c9.3,0,22.1,0.4,37.6,1.2v-80.4
		C304.5,103.1,237.8,120.5,213.4,129.4"/>
	<path class="st7" d="M942.7,346.5c10.7-4.5,23.2-4.9,34.8-0.1 M1002.5,372c4,10.4,4.2,22.4-0.5,33.5 M977.6,430
		c-10.7,4.4-23.1,4.8-34.7,0 M918.4,405.5c-4.4-10.7-4.8-23.1,0-34.7"/>
	<path class="st5" d="M998.5,388.2c0,21.1-17.1,38.3-38.3,38.3c-21.2,0-38.3-17.1-38.3-38.3c0-21.1,17.1-38.3,38.3-38.3
		C981.4,349.9,998.5,367.1,998.5,388.2"/>
	<path class="st4" d="M916.7,231.5c-10.9-0.4-56.6-4.5-119.1-10.2c1.6-29.5,1.6-49.5-6.1-69.2c17.5,8.4,31.9,15.9,42.7,21.3
		C885.4,199.1,931.4,225,916.7,231.5"/>
	<path class="st4" d="M533.4,86.9L557,199.3c-16.8-1.2-35.5-3.7-52.2-4.5V87C513.7,86.6,523.3,87,533.4,86.9"/>
	<path class="st4" d="M794.7,235l6.3,13.6c0,0,19.3,8,25.3-6c6-13.9-18.8-32.1-18.8-32.1L794.7,235z"/>
	<path class="st8" d="M52.7,152.1c0,0,32.1,17.5,45.7,33.9c7,9.2-59.5,86.6-72.9,89.4c6.8-26.7,9.5-120,9.5-120L52.7,152.1z"/>
	<path class="st5" d="M1158.3,300.2c0,0-18.6-51.6-134.7-51.6c-11.8-0.2,79.6,43.9,79.6,43.9L1158.3,300.2z"/>
	<path class="st9" d="M1158.3,300.2c0,0-18.6-51.6-134.7-51.6c-11.8-0.2,79.6,43.9,79.6,43.9L1158.3,300.2z"/>
	<path class="st10" d="M791.9,235.2H780c-12.7,0-29.2-10.3-29.2-22.9v-3.3c0-12.7,16.6-22.9,29.2-22.9h11.9
		c12.7,0,22.9,10.3,22.9,22.9v3.3C814.8,224.9,804.5,235.2,791.9,235.2"/>
	<path class="st3" d="M696.5,300.2c0,25.6-20.7,46.3-46.3,46.3c-25.6,0-46.3-20.7-46.3-46.3c0-25.6,20.7-46.3,46.3-46.3
		C675.8,254,696.5,274.7,696.5,300.2"/>
	<path class="st3" d="M338.6,250.9c0,5.9-4.7,10.6-10.6,10.6c-5.8,0-10.6-4.7-10.6-10.6c0-5.9,4.7-10.6,10.6-10.6
		C333.9,240.3,338.6,245,338.6,250.9"/>
	<path class="st3" d="M370,250.9c0,5.9-4.7,10.6-10.6,10.6c-5.8,0-10.6-4.7-10.6-10.6c0-5.9,4.7-10.6,10.6-10.6
		C365.3,240.3,370,245,370,250.9"/>
</g>
<g>
	<defs>
		<path id="SVGID_1_" d="M833.9,173.5c-46.7-23.4-160-86.5-306.8-86.5c-109.5,0-165.6,4.1-210,13.5v80.4
			c150.9,7.8,563.2,49.6,599.3,50.7C931.1,225,885.1,199.1,833.9,173.5"/>
	</defs>
	<clipPath id="SVGID_2_">
		<use xlink:href="#SVGID_1_"  style="overflow:visible;"/>
	</clipPath>
	<g class="st11">
		<g>
			<path class="st12" d="M361.4,178.5v-12.3v-32.6c0-6.8-5.4-12.3-12.1-12.3c-6.7,0-12.1,5.5-12.1,12.3l2.7,41.1
				C339.9,174.6,361,178.9,361.4,178.5"/>
			<g>
				<path class="st12" d="M437.5,231c4.5,2.8,8.4,5.4,11.8,6.3c2.1,0.6,4.5,1.6,5.5,1.9c2.3,0.8,3.2-2.9-0.9-4.7
					c-2.8-1.2-9.6-4.4-7.5-8.5c3.5-6.7-15.3-10.3-16.2-5C429.4,226.3,429.2,225.8,437.5,231"/>
				<path class="st12" d="M454.8,219.5c0,0-12.6,2.2-10.1,2.9c1.9,0.6,7.4-0.3,10.9,3.9c3.1,3.7,0.6,5.2,1.6,8
					c0.8,2.1,2.9,3.2,4.1,2.9c1.2-0.4,1.5-0.9,1.1-2c0,0-0.3-6.4-3.1-10.1C456.4,221.2,454.8,219.5,454.8,219.5"/>
				<path class="st12" d="M420.7,225.6c4,0.5,6.4,1.3,13.9,2.2c9.8,1.3,18.8-5,23.6-0.6c2.9,2.7,1.4,5.6,1.9,8
					c0.6,2.8,2.9,3.9,3.3,2.3c0.2-0.7,0.6-1.8,0.2-6.9c-0.4-5.1-2.6-8.1-5.5-9.7c-8.5-4.6-21.7-5.3-29.5-6.4c-2.5-0.4-26-6-26-6
					l0.9,14.4C403.5,222.9,417.3,225.1,420.7,225.6"/>
				<path class="st12" d="M354.2,181.5c18.2,11.5,41.5,31.4,41.5,31.4l14.9,1.6"/>
				<line class="st12" x1="401.2" y1="212.8" x2="417.7" y2="215.8"/>
				<polygon class="st12" points="453.2,366.5 428.6,373.1 435,345.8 450,348.1 				"/>
				<path class="st12" d="M424.7,374.9c3.4-7.6,6.2-14.1,6.2-14.1c8.6,3.8,15.6,3.4,15.6,3.4s1.6-4.9,6.5-2.7
					c4.9,2.2,2.1,6.5,2.7,10.9c0.6,4.4,4,12.2,11.9,11.3c4.7-0.6,7.2,0.8,7.6,4.3c0.2,1.6-11.3,5.6-22.7,2.3
					C438.9,386.4,424.7,374.9,424.7,374.9"/>
				<path class="st12" d="M475.9,392.2l-16.1,1.9c-9.2,1.1-36.6-15.7-36.6-15.7l1.7-3.8c0,0,25.8,16.4,35.2,15.3l15.3-1.8
					L475.9,392.2z"/>
				<path class="st12" d="M334.9,274.1c0,0-2.4-68.7-0.8-84.1c0.5-5.2,1.9-11.6,4-17c1.5-4,25.1-0.8,25.9,0.5
					c3.8,5.7,7.4,12.5,7.8,19.2c1,14.8,10.4,81.5,10.4,81.5H334.9z"/>
				
					<rect x="457.5" y="330.9" transform="matrix(0.8397 -0.543 0.543 0.8397 -112.2492 309.5234)" class="st12" width="21.4" height="28"/>
				<path class="st12" d="M471.3,374c-3.4-7.6-6.3-14-6.3-14c8.6-3.9,13-9.3,13-9.3s-2.6-4.4,2.3-6.7c4.9-2.2,6.3,2.8,10,5.3
					c3.7,2.4,13.6,4.1,20.9,0.8c4.3-1.9,7.1-1.4,8.6,1.8C521.1,355,471.3,374,471.3,374"/>
				<path class="st12" d="M380.6,285.6c16.2,6.4-20.9,16.9-16.7,18.1c2.8,0.8,39.2-0.5,51,0.8c16.9,13.5,47.6,53.1,47.6,53.1
					l17.5-22.2c0,0-39.6-41.8-50.3-53.3c-11.6-12.6-53.7-10.4-53.7-10.4L380.6,285.6z"/>
				
					<rect x="469.6" y="362.6" transform="matrix(0.9121 -0.41 0.41 0.9121 -105.8733 235.499)" class="st12" width="53.2" height="4.2"/>
				<path class="st12" d="M335.1,274.1c0,32.4,6.2,31.6,45.5,28.4c13.7-1.1,20.9-2.7,38.6-6.9c4.1,21.4,13.1,58.9,13.1,58.9l23,3.1
					c0,0-12.5-64.1-18.1-78.8c-4.6-12.4-40.2-8-55.1-7.3C370.4,272,335.1,274.1,335.1,274.1"/>
				<polygon class="st12" points="366.7,173.1 365.2,183.6 336.2,176.1 339,169.1 				"/>
				<path class="st12" d="M403.6,263.1c3.4,1.9,5.3,3.5,11.6,7.1c8.3,4.8,18.6,2.5,21.2,8.2c1.6,3.4,1.3,6,1.6,8.3
					c0.4,2.7,2.6,3.9,3.1,2.4c0.2-0.7,0.6-1.7,0.5-6.6c-0.1-4.9-1-7.3-3-9.8c-5.8-7.2-17.4-12.7-23.9-16.5c-2.1-1.2-19-13.9-19-13.9
					l-4.5,13.1C391.2,255.4,400.7,261.4,403.6,263.1"/>
			</g>
			<g>
				<path class="st12" d="M390.4,259.2l-13.6-9.7c-1.1-0.8-2.1-1.7-2.8-2.9l-37-47.2c-3.5-5.4-1.9-12.6,3.5-16
					c5.4-3.5,12.6-1.9,16,3.5l33.6,47l11.9,8.5C402.1,242.5,390.2,259.1,390.4,259.2"/>
				<polygon class="st12" points="390.5,261.5 404.1,241.4 391.1,233.9 378.2,252.8 				"/>
			</g>
			<path class="st12" d="M339.7,163c0,0,10.9,0.1,17.3,0c16.4-0.2,29.5-13.6,29.4-30l0-15.5c-0.2-16.4-13.6-29.5-30-29.4
				c-16.4,0.2-29.4,13.6-29.4,30C327,135,339.7,145.2,339.7,163"/>
			<path class="st12" d="M382.6,146.3c-3.8-1.2-7-1.9-9.2-2.2"/>
			<path class="st12" d="M381.8,114.9c-6.1-0.6-9.1,4.7-9.1,4.7"/>
			<path class="st12" d="M329,107.6h53.4c12.8,0,18-14.5,12.8-20.4c-2.1,3.1-7.9,2.2-10.9,1.8c-5.3-0.7-10.2-2.7-15.7-2.6
				c-5.5,0.1-11.4,0.9-16.8,2c-4,0.8-7.9,2.1-11.3,4.5c-4.3,3-7.8,7.4-10.4,11.9C329.5,105.7,329.1,106.6,329,107.6"/>
			<g>
				<defs>
					<path id="SVGID_3_" d="M386.4,117.5l0,15.5c0.2,16.4-13,29.8-29.4,30c-6.3,0.1-19,0-19,0c0-17.7-11-28-11-44.9
						c0-16.4,13-29.8,29.4-30c0.1,0,0.2,0,0.3,0C373,88.1,386.2,101.2,386.4,117.5"/>
				</defs>
				<use xlink:href="#SVGID_3_"  style="overflow:visible;fill:#BFBFBF;"/>
				<clipPath id="SVGID_4_">
					<use xlink:href="#SVGID_3_"  style="overflow:visible;"/>
				</clipPath>
				<path class="st13" d="M356.9,101.4v29.8h-12.7c0,0,5.1,21.5-19.8,22.6l0.3-52.2L356.9,101.4z"/>
			</g>
			<path class="st12" d="M379,138.6c0,0,8.6-0.2,12.5-0.8c2.7-0.4,3.3-2.5,1.4-4.6c-3.2-3.5-6.7-8-6.7-14.3c0-7.2-9,19-9,19"/>
			<path class="st12" d="M376.2,127.1c0,3.9,1.7,7.1,3.8,7.2c2.1,0,3.9-3.2,3.9-7.1c0-3.9-1.7-7.2-3.8-7.2
				C378,120,376.2,123.2,376.2,127.1z"/>
			<line class="st12" x1="375.8" y1="125.9" x2="351.4" y2="125.8"/>
			<path class="st12" d="M338.3,130.6c0,4.1,3.4,7.4,7.5,7.4c4.1,0,7.4-3.4,7.4-7.5c0-4.1-3.4-7.4-7.5-7.4
				C341.5,123.1,338.2,126.5,338.3,130.6"/>
			<path class="st12" d="M381.3,147.4c-3.8-1.2-5.4-1.6-7.6-1.9"/>
		</g>
		
			<rect x="415.7" y="157" transform="matrix(0.8777 0.4791 -0.4791 0.8777 143.0338 -176.8995)" class="st12" width="4.8" height="69.6"/>
	</g>
</g>
</svg>
