<?xml version="1.0" encoding="utf-8"?>
<!-- Generator: Adobe Illustrator 18.1.1, SVG Export Plug-In . SVG Version: 6.00 Build 0)  -->
<svg version="1.1" id="Layer_1" xmlns="http://www.w3.org/2000/svg" xmlns:xlink="http://www.w3.org/1999/xlink" x="0px" y="0px"
	 viewBox="0 0 141.6 15.7" style="enable-background:new 0 0 141.6 15.7;" xml:space="preserve">
<style type="text/css">
	.st0{fill:#FFFFFF;}
	.st1{fill:none;}
</style>
<symbol  id="logo_x5F_light" viewBox="0 -136 416 136">
	<path class="st0" d="M0.7-52.6C0.7-23.6,25-0.1,54-0.1c16,0,27.4-6.3,36-14.5L79.8-24.7C73.7-18.9,65.4-14.4,54-14.4
		c-21.1,0-37.6-17-37.6-38.1c0-21.1,16.5-38.1,37.6-38.1c13.7,0,21.5,5.5,26.5,10.5c4.1,4.1,6.8,10,7.8,18H54v14.3h48.3
		c0.5-2.6,0.8-5.6,0.8-9c0-10.8-2.9-24.1-12.4-33.5C81.4-99.9,69.6-105,54-105C25-105,0.7-81.5,0.7-52.6z"/>
	<path class="st0" d="M142-37.5c-18.7,0-33.9-14.2-33.9-33.8c0-19.5,15.2-33.8,33.9-33.8c18.7,0,33.9,14.3,33.9,33.8
		C175.9-51.7,160.7-37.5,142-37.5z M142-91.7c-10.2,0-19.1,8.4-19.1,20.5c0,12.2,8.8,20.5,19.1,20.5c10.2,0,19.1-8.3,19.1-20.5
		C161.1-83.3,152.2-91.7,142-91.7z"/>
	<path class="st0" d="M216-37.5c-18.7,0-33.9-14.2-33.9-33.8c0-19.5,15.2-33.8,33.9-33.8c18.7,0,33.9,14.3,33.9,33.8
		C249.9-51.7,234.7-37.5,216-37.5z M216-91.7c-10.2,0-19.1,8.4-19.1,20.5c0,12.2,8.8,20.5,19.1,20.5s19.1-8.3,19.1-20.5
		C235.1-83.3,226.2-91.7,216-91.7z"/>
	<path class="st0" d="M306.8-39.5V-45h-0.5c-3.3,4-9.7,7.6-17.8,7.6c-16.9,0-32.4-14.8-32.4-33.9c0-18.9,15.5-33.7,32.4-33.7
		c8.1,0,14.5,3.6,17.8,7.7h0.5v-4.9c0-12.9-6.9-19.8-18-19.8c-9.1,0-14.7,6.5-17,12l-12.9-5.4c3.7-9,13.6-20,30-20
		c17.4,0,32.1,10.2,32.1,35.2v60.7H306.8z M289.8-91.7c-10.2,0-18.8,8.6-18.8,20.4c0,11.9,8.6,20.6,18.8,20.6c10.1,0,18-8.7,18-20.6
		C307.9-83.2,299.9-91.7,289.8-91.7z"/>
	<polygon class="st0" points="346,-103 331.2,-103 331.2,-3.7 346,-3.7 	"/>
	<path class="st0" d="M386.7-91.7c-7.6,0-12.9,3.5-16.4,10.2l45.2,18.7L414-59c-2.8,7.6-11.4,21.5-28.9,21.5
		c-17.4,0-31.9-13.7-31.9-33.8c0-18.9,14.3-33.8,33.5-33.8c15.5,0,24.4,9.5,28.2,15l-11.5,7.7C399.5-88,394.3-91.7,386.7-91.7z
		 M385.6-50.5c5.9,0,10.9-2.9,12.5-7.2l-30.2-12.5C367.5-57.2,378-50.5,385.6-50.5z"/>
	<polygon class="st1" points="0,-136 416,-136 416,0 0,0 	"/>
</symbol>
<g>
	<rect x="0" y="0" class="st1" width="141.6" height="15.7"/>
	<g>
		<path class="st0" d="M55.1,1.3h1.5l4,10.6h-1.5l-1-2.9h-4.5l-1,2.9h-1.5L55.1,1.3z M57.6,7.8L55.9,3h-0.1l-1.7,4.8H57.6z"/>
		<path class="st0" d="M62.8,10.9L62.8,10.9v1v3.2h-1.4V4.7h1.3v1h0.1c0.4-0.7,1.3-1.2,2.5-1.2c1.8,0,3.5,1.6,3.5,3.9
			c0,2.2-1.6,3.9-3.5,3.9C64.1,12.2,63.2,11.6,62.8,10.9z M67.3,8.3c0-1.6-1.1-2.6-2.3-2.6c-1.2,0-2.3,1-2.3,2.6
			c0,1.7,1.1,2.6,2.3,2.6C66.2,10.9,67.3,9.9,67.3,8.3z"/>
		<path class="st0" d="M70.9,10.9L70.9,10.9v1v3.2h-1.4V4.7h1.3v1h0.1c0.4-0.7,1.3-1.2,2.5-1.2c1.8,0,3.5,1.6,3.5,3.9
			c0,2.2-1.6,3.9-3.5,3.9C72.2,12.2,71.3,11.6,70.9,10.9z M75.5,8.3c0-1.6-1.1-2.6-2.3-2.6c-1.2,0-2.3,1-2.3,2.6
			c0,1.7,1.1,2.6,2.3,2.6C74.4,10.9,75.5,9.9,75.5,8.3z"/>
		<path class="st0" d="M77.4,10.1l1.2-0.5c0.4,0.9,1.1,1.4,2,1.4c0.8,0,1.5-0.4,1.5-1c0-0.4-0.2-0.8-1-1l-1.5-0.4
			c-0.7-0.2-1.9-0.7-1.9-2c0-1.3,1.4-2.2,2.9-2.2c1.3,0,2.4,0.6,2.8,1.7l-1.2,0.5c-0.3-0.7-0.9-1-1.7-1C79.7,5.6,79,6,79,6.6
			c0,0.5,0.4,0.7,1,0.8l1.4,0.3c1.4,0.3,2,1.2,2,2.1c0,1.3-1.2,2.3-2.9,2.3C78.8,12.2,77.8,11.1,77.4,10.1z"/>
		<path class="st0" d="M92.4,1.4l-0.5,1.2c-0.2-0.1-0.4-0.1-0.6-0.1c-0.7,0-1.2,0.4-1.2,1.2v0.9H92v1.2h-1.9v6h-1.4v-6h-1.4V4.7h1.4
			v-1c0-1.5,1.1-2.4,2.6-2.4C91.8,1.3,92.1,1.3,92.4,1.4z"/>
		<path class="st0" d="M99.8,8.3c0,2.2-1.6,3.9-3.7,3.9c-2.2,0-3.7-1.7-3.7-3.9c0-2.2,1.6-3.9,3.7-3.9C98.3,4.4,99.8,6.1,99.8,8.3z
			 M98.5,8.3c0-1.7-1.2-2.6-2.4-2.6c-1.2,0-2.4,1-2.4,2.6c0,1.7,1.2,2.6,2.4,2.6C97.3,10.9,98.5,9.9,98.5,8.3z"/>
		<path class="st0" d="M100.9,11.9V4.7h1.3v1.2h0.1c0.3-0.8,1.3-1.4,2.1-1.4c0.4,0,0.7,0.1,1,0.2l-0.5,1.3c-0.2-0.1-0.4-0.1-0.7-0.1
			c-0.9,0-1.9,0.8-1.9,2.1v4H100.9z"/>
		<path class="st0" d="M118.6,11.9h-1.4l-2.3-7h-0.1l-2.3,7h-1.4l-2.9-10.6h1.4l2.2,8.3h0.1l2.3-6.9h1.3l2.3,6.9h0.1l2.1-8.3h1.4
			L118.6,11.9z"/>
		<path class="st0" d="M128.6,8.3c0,2.2-1.6,3.9-3.7,3.9c-2.2,0-3.7-1.7-3.7-3.9c0-2.2,1.6-3.9,3.7-3.9C127,4.4,128.6,6.1,128.6,8.3
			z M127.2,8.3c0-1.7-1.2-2.6-2.4-2.6c-1.2,0-2.4,1-2.4,2.6c0,1.7,1.2,2.6,2.4,2.6C126.1,10.9,127.2,9.9,127.2,8.3z"/>
		<path class="st0" d="M129.7,11.9V4.7h1.3v1.2h0.1c0.3-0.8,1.3-1.4,2.1-1.4c0.4,0,0.7,0.1,1,0.2l-0.5,1.3c-0.2-0.1-0.4-0.1-0.7-0.1
			c-0.9,0-1.9,0.8-1.9,2.1v4H129.7z"/>
		<path class="st0" d="M136.4,7.8l3.1-3.1h1.8v0.1l-2.8,2.8l3,4.3v0.1h-1.6l-2.3-3.4l-1.1,1.1v2.3h-1.4V1.3h1.4V7.8z"/>
	</g>
	
		<use xlink:href="#logo_x5F_light"  width="416" height="136" x="0" y="-136" transform="matrix(0.1157 0 0 -0.1157 -3.453557e-05 2.000575e-05)" style="overflow:visible;"/>
</g>
</svg>
