<?xml version="1.0" encoding="utf-8"?>
<!-- Generator: Adobe Illustrator 18.1.1, SVG Export Plug-In . SVG Version: 6.00 Build 0)  -->
<svg version="1.1" id="Layer_1" xmlns="http://www.w3.org/2000/svg" xmlns:xlink="http://www.w3.org/1999/xlink" x="0px" y="0px"
	 viewBox="0 0 48.6 158.5" style="enable-background:new 0 0 48.6 158.5;" xml:space="preserve">
<style type="text/css">
	.st0{fill:#FFFFFF;}
	.st1{fill:#CCCBCB;}
	.st2{fill:#ECECEC;}
	.st3{fill:#547DBE;}
	.st4{fill:#F7BB16;}
	.st5{fill:#0C9D58;}
	.st6{fill:#BCBCBC;}
</style>
<rect x="0" y="54.1" class="st0" width="48.6" height="49.6"/>
<rect x="0" y="108.9" class="st0" width="48.6" height="49.6"/>
<rect x="0" y="0" class="st0" width="48.6" height="49.2"/>
<path class="st1" d="M37.3,19.1c0,7.5-6.1,13.5-13.5,13.5c-7.5,0-13.5-6.1-13.5-13.5c0-7.5,6.1-13.5,13.5-13.5
	C31.3,5.5,37.3,11.6,37.3,19.1"/>
<path class="st2" d="M24.1,4.9c-0.1,0-0.2,0-0.3,0C16,4.9,9.5,10.8,8.4,18.3l15.7,0.1V4.9z"/>
<path class="st3" d="M12,30.6c2.9,3.3,7.1,5.5,11.9,5.5c0.1,0,0.2,0,0.3,0V18.7L12,30.6z"/>
<path class="st4" d="M24.1,18.4L8.4,18.3c-0.1,0.7-0.2,1.4-0.2,2.2c0,3.9,1.4,7.4,3.7,10.1l12.2-12V18.4z"/>
<path class="st5" d="M39.4,20.5c0-8.5-6.8-15.4-15.3-15.6v31.1C32.6,35.9,39.4,29,39.4,20.5"/>
<rect x="3.4" y="40.1" class="st6" width="40.7" height="2.5"/>
<rect x="10.8" y="62.6" class="st5" width="5.9" height="35.1"/>
<rect x="16.7" y="87.6" class="st3" width="5.9" height="10.2"/>
<rect x="30.1" y="87.6" class="st4" width="5.9" height="10.2"/>
<rect x="22.5" y="77.3" class="st2" width="7.5" height="20.4"/>
<g>
	<rect x="10.3" y="120.1" class="st6" width="25.7" height="2.9"/>
	<rect x="23.1" y="126.1" class="st6" width="12.8" height="2.9"/>
	<rect x="23.1" y="132" class="st6" width="12.8" height="2.9"/>
	<rect x="10.3" y="137.6" class="st6" width="25.7" height="2.9"/>
	<rect x="10.3" y="143.3" class="st6" width="25.7" height="2.9"/>
	<rect x="10.3" y="126.1" class="st3" width="9.2" height="8.9"/>
</g>
</svg>
